<?xml version="1.0" encoding="UTF-8"?>
<svg id="Layer_2" data-name="Layer 2" xmlns="http://www.w3.org/2000/svg" viewBox="0 0 750 750">
  <defs>
    <style>
      .cls-1 {
        fill: #ca97ff;
      }

      .cls-2 {
        fill: #fff;
      }

      .cls-3 {
        fill: #0092ff;
      }
    </style>
  </defs>
  <g id="Layer_1-2" data-name="Layer 1">
    <g>
      <g>
        <rect class="cls-2" x="111.06" width="87.57" height="750"/>
        <rect class="cls-2" x="551.4" width="87.57" height="750"/>
      </g>
      <path class="cls-3" d="M638.96,395.91v69.3c91.42-32.38,111.04-74.57,111.04-104.85s-19.62-72.49-111.04-104.87c-3.77-1.35-7.66-2.66-11.69-3.96-23.01-7.46-48.51-13.76-75.88-18.86-53.35-9.92-113.73-15.19-176.38-15.19s-123.06,5.27-176.38,15.19v65.53c51.95-10.71,112.68-16.44,176.38-16.44s124.43,5.72,176.38,16.44c19.79,4.07,38.33,8.89,55.26,14.36,12.63,4.09,23.32,8.21,32.31,12.24v71.12Z"/>
      <path class="cls-1" d="M111.06,324.79v-69.3C19.64,287.87,0,330.09,0,360.36s19.64,72.47,111.06,104.85c3.77,1.35,7.66,2.66,11.69,3.96,23.01,7.46,48.51,13.76,75.88,18.86,53.33,9.94,113.71,15.21,176.38,15.21s123.03-5.27,176.38-15.21v-65.51c-51.95,10.69-112.68,16.44-176.38,16.44s-124.43-5.74-176.38-16.44c-19.79-4.09-38.33-8.89-55.26-14.38-12.63-4.09-23.32-8.21-32.31-12.24v-71.12Z"/>
    </g>
  </g>
</svg>